# xmcd
#
# Track frame offsets: 
#        150
#        24038
#        52916
#        71097
#        88113
#        113783
#        135587
#        156044
#        176936
#        199970
#        228831
#        253555
#        283582
#        293942
#
# Disc length: 4157 seconds
#
# Revision: 1
# Processed by: cddbd v1.5.2PL0 Copyright (c) Steve Scherf et al.
# Submitted via: ExactAudioCopy v0.99pb4
#
DISCID=c3103b0e
DTITLE=Ronald Turner and The Fashion Statement - It's All About Love
DYEAR=2003
DGENRE=Turner Development International
TTITLE0=It's All About Love [Instrumental]
TTITLE1=Real Chocklett [Acoustic]
TTITLE2=Take Me as I Am
TTITLE3=Mr. Gary [AKA Slam Dunk]
TTITLE4=Ebonically Correct [Synthesizer]
TTITLE5=Glory Angel
TTITLE6=Pie Mowf, Moochie, 'N Ironjaw
TTITLE7=Song for a Queen
TTITLE8=Pocketslam
TTITLE9=Real Chocklett [Synthesizer]
TTITLE10=It's Alll About Love [Vocal Version]
TTITLE11=Ebonically Correct [Acoustuc]
TTITLE12=Don't Fly Too High
TTITLE13=Latina Beauties
EXTD=YEAR: 2003
EXTT0=
EXTT1=
EXTT2=
EXTT3=
EXTT4=
EXTT5=
EXTT6=
EXTT7=
EXTT8=
EXTT9=
EXTT10=
EXTT11=
EXTT12=
EXTT13=
PLAYORDER=
